<svg width="199" height="30" viewBox="0 0 199 30" fill="none" xmlns="http://www.w3.org/2000/svg">
<path d="M6.2 21.16V0.999998H0.32V21.16H6.2ZM16.8 29C21.2 29 24.88 28.4 27.72 26.32C30.56 24.24 31.96 20.72 32 16.68V13.32C31.96 9.28 30.56 5.8 27.76 3.68C24.88 1.6 21.2 0.999998 16.8 0.999998H8.6V6.44H16.8C20.56 6.44 23 7.52 24.24 8.44C25.52 9.4 26.12 10.68 26.12 13.52V16.48C26.12 19.36 25.52 20.6 24.24 21.56C23 22.48 20.56 23.56 16.8 23.56H0.32V29H16.8ZM16.8 28.64H0.68V23.92H16.8C20.64 23.92 23.16 22.8 24.48 21.84C25.76 20.88 26.44 19.64 26.48 16.68H31.6C31.56 20.64 30.24 24 27.52 26C24.76 28.04 21.16 28.64 16.8 28.64ZM49.5675 29.48V23.56C45.6475 23.56 43.2475 22.92 41.9675 21.96C40.6875 21 40.0475 19.56 40.0475 16.56V13.44C40.0475 11.88 40.2475 10.76 40.5675 9.92C41.5275 7.4 44.1275 6.44 49.5675 6.44V0.52H49.3675C44.9675 0.52 41.2475 1.16 38.3675 3.36C35.5675 5.52 34.2075 9.12 34.1675 13.28V16.72C34.2075 20.88 35.5675 24.48 38.3675 26.64C41.2875 28.88 45.0475 29.48 49.5675 29.48ZM51.5675 29.48C55.9675 29.48 59.6875 28.84 62.5675 26.64C65.3675 24.48 66.7275 20.88 66.7675 16.72V13.28C66.7275 9.12 65.3675 5.52 62.5675 3.36C59.6875 1.16 55.9675 0.52 51.5675 0.52H51.4075V6.44C55.2875 6.44 57.6875 7.08 58.9675 8.04C60.2475 9 60.8875 10.44 60.8875 13.44V16.56C60.8875 18.12 60.6875 19.24 60.3675 20.08C59.4075 22.6 56.8075 23.56 51.4075 23.56V29.48H51.5675ZM66.4075 13.28H61.2475C61.1675 7.36 58.2075 6.12 51.7675 6.08V0.919999C56.0075 0.919999 59.6075 1.56 62.3275 3.64C65.0475 5.72 66.3675 9.2 66.4075 13.28ZM49.1675 29.08C44.9275 29.08 41.3275 28.44 38.6075 26.36C35.8875 24.28 34.6075 20.8 34.5675 16.72H39.6875C39.7675 22.64 42.7275 23.88 49.1675 23.92V29.08ZM101.292 29L77.1322 0.999998H69.6522L93.8122 29H101.292ZM101.092 26.56V0.999998H95.2122V19.72L101.092 26.56ZM100.732 25.56L95.5722 19.6V1.36H100.732V25.56ZM75.7722 29V10.28L69.8522 3.44V29H75.7722ZM75.4122 28.64H70.2522V4.44L75.4122 10.4V28.64ZM118.927 29.48L119.127 29.44V23.56H118.927C116.607 23.56 114.487 23.32 112.967 22.32C111.487 21.32 110.527 19.6 110.527 16.56V0.999998H104.647V16.72C104.687 21.08 106.127 24.32 108.607 26.4C111.087 28.48 114.447 29.48 118.447 29.48H118.927ZM121.247 29.48C125.247 29.48 128.607 28.48 131.087 26.4C133.567 24.32 135.007 21.08 135.047 16.72V0.999998H129.167V16.56C129.167 19.6 128.207 21.32 126.727 22.32C125.167 23.36 123.007 23.56 120.567 23.56V29.44L120.767 29.48H121.247ZM134.687 16.36H129.527V1.36H134.687V16.36ZM118.727 29.08H118.487C114.567 29.08 111.207 28.12 108.847 26.12C106.447 24.12 105.087 21 105.047 16.72H110.207C110.247 19.76 111.207 21.6 112.767 22.64C114.327 23.68 116.447 23.92 118.727 23.92V29.08ZM140.166 0.999998L137.686 6.44H168.206L165.726 0.999998H140.166ZM150.286 1.36H155.606L158.166 6.08H147.726L150.286 1.36ZM150.006 8.84V29H155.886V8.84H150.006ZM185.056 29C187.376 29 190.096 28.96 192.696 28.12C194.096 27.64 195.536 26.88 196.616 25.56C197.736 24.24 198.336 22.44 198.336 20.52C198.336 18.6 197.736 16.8 196.616 15.48C195.536 14.16 194.096 13.4 192.656 12.92C190.896 12.36 189.096 12.24 187.416 12.24L182.456 12.28C180.736 12.28 178.696 12.28 177.096 11.88C176.336 11.72 175.656 11.44 175.216 11C174.736 10.6 174.496 10.08 174.496 9.36C174.496 8.64 174.736 8.12 175.176 7.72C175.656 7.28 176.296 7 177.096 6.84C178.656 6.44 180.696 6.44 182.456 6.44H182.656V0.999998H181.536C179.256 0.999998 176.696 1.08 174.256 1.88C172.816 2.36 171.376 3.12 170.296 4.44C169.176 5.76 168.576 7.56 168.576 9.48C168.576 11.4 169.176 13.2 170.296 14.52C171.376 15.84 172.816 16.6 174.256 17.08C176.016 17.64 177.816 17.76 179.496 17.76L184.456 17.72H185.936C187.136 17.72 188.496 17.76 189.616 18C190.416 18.16 191.136 18.44 191.656 18.84C192.136 19.24 192.456 19.76 192.456 20.52C192.456 21.28 192.136 21.8 191.616 22.24C191.136 22.68 190.416 22.96 189.576 23.16C187.936 23.56 185.896 23.56 184.456 23.56H184.256V29H185.056ZM197.696 12.52V0.999998H184.256V6.44H191.776V10.04L197.696 12.52ZM197.296 11.96L192.136 9.8V6.08H184.616V1.36H197.296V11.96ZM182.736 29V23.56H171.056L168.576 29H182.736ZM182.376 28.64H169.136L171.296 23.92H182.376V28.64Z" fill="#E18BA4"/>
</svg>
